<svg xmlns="http://www.w3.org/2000/svg" fill="currentColor" viewBox="0 0 24 24">
    <path d="M12 0C5.373 0 0 5.373 0 12a12 12 0 008.205 11.387c.6.111.82-.26.82-.577v-2.234c-3.338.726-4.033-1.61-4.033-1.61-.546-1.386-1.333-1.756-1.333-1.756-1.09-.745.082-.73.082-.73 1.204.084 1.838 1.236 1.838 1.236 1.07 1.834 2.809 1.304 3.495.996.108-.775.42-1.305.762-1.605-2.665-.304-5.467-1.332-5.467-5.93 0-1.31.47-2.381 1.236-3.221-.124-.303-.536-1.524.117-3.176 0 0 1.008-.322 3.3 1.23a11.52 11.52 0 013.003-.404c1.02.005 2.045.138 3.003.404 2.29-1.552 3.296-1.23 3.296-1.23.655 1.653.243 2.874.119 3.176.77.84 1.235 1.911 1.235 3.221 0 4.61-2.807 5.624-5.48 5.921.431.372.823 1.103.823 2.222v3.293c0 .32.217.694.825.576A12.002 12.002 0 0024 12c0-6.627-5.373-12-12-12z" />
</svg>
